<svg width="99" height="54" viewBox="0 0 99 54" fill="none" xmlns="http://www.w3.org/2000/svg">
<g clip-path="url(#clip0_3802_1181)">
<path d="M75.0342 31.7718C75.7877 31.7718 76.3986 30.9007 76.3986 29.8261C76.3986 28.7515 75.7877 27.8804 75.0342 27.8804C74.2808 27.8804 73.6699 28.7515 73.6699 29.8261C73.6699 30.9007 74.2808 31.7718 75.0342 31.7718Z" fill="#FF4545"/>
<path fill-rule="evenodd" clip-rule="evenodd" d="M81.6098 1.38502C81.4061 1.46945 80.5952 1.71506 80.8988 1.24686C81.2793 0.736449 81.8826 0.398734 82.4591 0.149284C82.6321 0.0802061 83.5083 -0.199945 83.2354 0.249064C82.855 0.786339 82.2016 1.12789 81.6136 1.38502M70.4262 26.1265C69.6652 26.257 69.5999 25.0904 69.6383 24.5876C69.7152 23.8623 69.9842 22.8415 70.7375 22.5422C71.5176 22.3272 71.606 23.5246 71.5714 24.0312C71.4984 24.7565 71.2294 25.8886 70.4262 26.1265ZM75.5991 6.27422C75.234 6.4853 74.915 6.4047 75.1609 5.96721C75.5068 5.39539 76.0218 4.91568 76.5906 4.57413C76.9134 4.38992 77.3477 4.35922 77.0941 4.82358C76.7366 5.41842 76.1909 5.91732 75.6029 6.27806M81.5713 24.2192C80.4607 24.3152 79.7958 23.325 79.8227 22.3042C79.9149 21.2028 80.6528 20.1206 81.7789 19.8826C82.8972 19.733 83.6121 20.6962 83.6044 21.7362C83.5275 22.8722 82.7512 24.0235 81.5713 24.2154M85.3377 2.06429C85.0187 2.15639 83.9849 2.32525 84.2462 1.69587C84.5806 1.05498 85.3684 0.694235 86.0294 0.487C86.3253 0.402571 87.3861 0.199174 87.1824 0.813203C86.8788 1.48863 86.0025 1.85705 85.3377 2.06812M81.9672 17.8947C80.7028 18.0904 79.8304 17.1272 79.9611 15.8953C80.1878 14.5483 81.2331 13.3739 82.5552 13.0209C83.7927 12.7714 84.7727 13.6195 84.6882 14.8783C84.4998 16.3021 83.37 17.5762 81.9634 17.8947M89.3807 16.1255C88.32 16.2253 87.3054 15.5614 87.3515 14.4216C87.4821 13.2665 88.489 12.4107 89.5997 12.2188C90.6412 12.0998 91.6789 12.7139 91.6827 13.8383C91.5982 15.0433 90.5298 15.9452 89.3807 16.1217M84.1309 5.67171C83.4776 5.8444 82.2785 5.80986 82.5898 4.83125C82.9895 3.84113 84.0617 3.20408 85.0379 2.89323C85.6374 2.72821 86.921 2.65913 86.6981 3.62622C86.3484 4.68926 85.1416 5.36085 84.1347 5.67171M82.8511 11.2632C81.702 11.5165 80.526 10.9524 80.8066 9.63219C81.2024 8.24295 82.4783 7.20294 83.8273 6.79231C84.9034 6.51983 86.2331 6.89593 86.0486 8.23144C85.722 9.73197 84.2808 10.8679 82.8511 11.267M96.8941 8.13166C96.0332 8.19306 94.7918 7.81313 94.7726 6.77696C94.8572 5.76381 95.9948 5.27259 96.8787 5.192C97.6896 5.14978 98.9655 5.46831 99.0078 6.47378C99.0539 7.51379 97.7549 8.07026 96.8902 8.13166M90.5336 3.87567C89.9917 3.9601 88.8042 3.94091 88.9464 3.11581C89.1731 2.3099 90.1762 1.91845 90.9218 1.77262C91.4521 1.68819 92.6128 1.68052 92.5551 2.47876C92.3899 3.33072 91.283 3.73368 90.5336 3.87567ZM89.8073 9.63603C88.7235 9.77419 87.2439 9.35204 87.3937 8.00118C87.6589 6.67718 89.0271 5.87127 90.2646 5.63333C91.3099 5.47982 92.7972 5.82138 92.7703 7.13003C92.6089 8.54613 91.0832 9.40961 89.8073 9.63603M71.0449 20.8497C70.1226 21.1491 70.1149 19.8097 70.2148 19.2341C70.4185 18.2593 70.9142 17.1272 71.8443 16.6436C72.782 16.2484 72.8666 17.5148 72.7628 18.1365C72.5591 19.1381 72.0518 20.4161 71.0449 20.8497ZM68.1587 21.671C67.6014 21.9128 67.7321 20.8075 67.7782 20.5389C67.9127 19.8942 68.1587 19.0844 68.7352 18.6968C69.3078 18.3898 69.1963 19.4835 69.1464 19.7675C69.0119 20.4161 68.7698 21.3141 68.1548 21.671M73.9619 9.88164C73.3201 10.2309 73.1202 9.74732 73.3662 9.17551C73.7659 8.33506 74.4231 7.59055 75.2186 7.10316C75.7989 6.77696 76.1909 7.04176 75.9219 7.68649C75.5068 8.56916 74.7997 9.37891 73.9619 9.88164M72.2171 15.1239C71.264 15.5614 71.2332 14.4216 71.4292 13.7769C71.802 12.6793 72.5168 11.5932 73.5314 10.9869C74.45 10.5072 74.6767 11.3899 74.4615 12.1459C74.081 13.3049 73.3162 14.5252 72.2171 15.1239M67.4131 17.5724C67.025 17.8717 67.2363 16.9506 67.2825 16.801C67.4669 16.2253 67.7206 15.6036 68.1702 15.1815C68.5776 14.8438 68.3816 15.7149 68.3278 15.8914C68.1356 16.4786 67.8858 17.1502 67.4131 17.5724M71.0065 11.5549C70.5645 11.8657 70.6375 11.3208 70.7644 11.0291C71.0411 10.4343 71.4369 9.86629 71.9596 9.46334C72.3862 9.15632 72.4015 9.5823 72.2517 9.92002C71.9634 10.534 71.5522 11.1366 71.0065 11.5549ZM69.2463 16.659C68.5584 17.0735 68.7659 15.8799 68.8697 15.5422C69.1541 14.6826 69.6153 13.7769 70.3531 13.2127C71.0488 12.7446 70.9296 13.7846 70.8066 14.1952C70.5069 15.0855 70.038 16.0948 69.2463 16.6551M74.9918 25.9692C73.8735 26.092 73.5045 24.8025 73.5507 23.916C73.6506 22.853 74.204 21.5866 75.3147 21.2604C76.4599 21.0339 76.8904 22.3272 76.8519 23.2368C76.7597 24.3267 76.1832 25.7197 74.9918 25.9692ZM75.4799 19.7829C74.1886 20.0784 73.7697 18.7275 73.9311 17.6952C74.2001 16.3596 75.0572 14.9896 76.3715 14.4792C77.6513 14.0801 78.2278 15.2774 78.0856 16.3865C77.8358 17.7949 76.9096 19.3377 75.4799 19.7867M78.2201 7.98199C77.4515 8.28517 76.6828 8.02804 77.0556 7.107C77.5514 6.0478 78.5276 5.21118 79.5767 4.72764C80.2416 4.45132 81.2524 4.47435 80.9103 5.44145C80.4261 6.58124 79.3308 7.49077 78.2163 7.98583M76.6213 13.3547C75.453 13.7423 74.8842 12.8367 75.184 11.7659C75.6298 10.4228 76.679 9.22924 77.978 8.65358C79.0579 8.23911 79.8996 8.84163 79.6267 10.0083C79.2001 11.4551 78.0279 12.7944 76.6213 13.3547ZM79.8996 4.06756C79.5076 4.23258 78.7005 4.35154 79.0425 3.70298C79.4691 2.99301 80.2147 2.48259 80.9564 2.14872C81.287 2.01056 82.2208 1.79181 81.9095 2.44038C81.4868 3.18873 80.6644 3.72216 79.8996 4.07139" fill="#FF4545"/>
<path d="M1.36432 31.7718C2.11782 31.7718 2.72865 30.9007 2.72865 29.8261C2.72865 28.7515 2.11782 27.8804 1.36432 27.8804C0.610829 27.8804 0 28.7515 0 29.8261C0 30.9007 0.610829 31.7718 1.36432 31.7718Z" fill="#FF4545"/>
<path d="M2.46385 35.6479H0.261719V53.7349H2.46385V35.6479Z" fill="white"/>
<path d="M8.29395 36.6691C9.812 36.0244 12.5099 35.3413 15.7382 35.3413C20.0656 35.3413 23.0671 36.7843 23.0671 42.5446V53.7315H20.8649V42.583C20.8649 38.1467 18.7781 37.4252 15.7382 37.4252C13.4592 37.4252 11.8258 37.7667 10.4961 38.2963V53.7276H8.29395V36.6653V36.6691Z" fill="white"/>
<path d="M28.2979 28.0957H30.5V35.6483H38.0941V37.7321H30.5V47.4414C30.5 50.9299 32.0565 51.9162 34.3355 51.9162C35.8535 51.9162 37.4869 51.5746 38.5514 51.045L38.8935 53.0944C37.7559 53.624 36.0457 54.0039 34.3739 54.0039C30.842 54.0039 28.2979 52.2961 28.2979 47.4453V28.0995V28.0957Z" fill="white"/>
<path d="M57.2098 45.5802H44.4505V45.7337C44.4505 50.1317 46.8794 51.9508 50.8302 51.9508C53.0323 51.9508 55.196 51.3828 56.6026 50.623L56.9062 52.6723C55.1614 53.5434 53.0708 54.0001 50.7918 54.0001C45.0962 54.0001 42.21 51.1564 42.21 44.6707C42.21 39.5129 44.0701 35.3413 49.9578 35.3413C54.6657 35.3413 57.5135 37.997 57.5135 43.1894C57.5135 43.9876 57.4366 44.8588 57.2098 45.5802M44.4505 43.6461H55.4228V43.458C55.4228 39.06 53.2206 37.3523 49.9155 37.3523C46.6104 37.3523 44.4467 39.06 44.4467 43.458V43.6461H44.4505Z" fill="white"/>
<path d="M62.3447 28.061H64.5469V48.5773C64.5469 51.1946 65.4193 51.8777 66.749 51.8777C67.5099 51.8777 68.0787 51.7625 68.5322 51.5361L68.8743 53.5471C68.3785 53.7735 67.6598 53.927 66.6721 53.927C64.2048 53.927 62.3447 52.6759 62.3447 48.8459V28.0649V28.061Z" fill="white"/>
<path d="M76.1377 35.6479H73.9355V53.7349H76.1377V35.6479Z" fill="white"/>
</g>
<defs>
<clipPath id="clip0_3802_1181">
<rect width="99" height="54" fill="white"/>
</clipPath>
</defs>
</svg>
